<mxfile host="app.diagrams.net" modified="2024-03-20T11:07:47.568Z" agent="Mozilla/5.0 (Windows NT 10.0; Win64; x64) AppleWebKit/537.36 (KHTML, like Gecko) Chrome/120.0.0.0 Safari/537.36" etag="jP46LJRJ0KhCeN4ihtDb" version="24.0.7" type="device">
  <diagram name="Page-1" id="2YBvvXClWsGukQMizWep">
    <mxGraphModel dx="1165" dy="579" grid="1" gridSize="10" guides="1" tooltips="1" connect="1" arrows="1" fold="1" page="1" pageScale="1" pageWidth="850" pageHeight="1100" math="0" shadow="0">
      <root>
        <mxCell id="0" />
        <mxCell id="1" parent="0" />
        <mxCell id="UplhZpxLujP6LRqdYBbW-49" style="edgeStyle=orthogonalEdgeStyle;rounded=0;orthogonalLoop=1;jettySize=auto;html=1;exitX=1;exitY=0.25;exitDx=0;exitDy=0;entryX=0;entryY=0.5;entryDx=0;entryDy=0;strokeColor=#E07A5F;fontColor=#393C56;fillColor=#F2CC8F;" edge="1" parent="1" source="UplhZpxLujP6LRqdYBbW-4" target="UplhZpxLujP6LRqdYBbW-33">
          <mxGeometry relative="1" as="geometry" />
        </mxCell>
        <mxCell id="UplhZpxLujP6LRqdYBbW-4" value="API" style="swimlane;whiteSpace=wrap;html=1;rounded=1;labelBackgroundColor=none;fillColor=#F2CC8F;strokeColor=#E07A5F;fontColor=#393C56;startSize=40;" vertex="1" parent="1">
          <mxGeometry x="40" y="40" width="330" height="440" as="geometry" />
        </mxCell>
        <mxCell id="UplhZpxLujP6LRqdYBbW-6" value="" style="rounded=0;whiteSpace=wrap;html=1;strokeColor=#E07A5F;fontColor=#393C56;fillColor=#F2CC8F;" vertex="1" parent="UplhZpxLujP6LRqdYBbW-4">
          <mxGeometry x="20" y="240" width="120" height="60" as="geometry" />
        </mxCell>
        <mxCell id="UplhZpxLujP6LRqdYBbW-7" value="&lt;b style=&quot;font-size: 20px;&quot;&gt;Controllers&lt;/b&gt;" style="text;html=1;align=center;verticalAlign=middle;whiteSpace=wrap;rounded=0;fontColor=#393C56;fontSize=20;" vertex="1" parent="UplhZpxLujP6LRqdYBbW-4">
          <mxGeometry x="50" y="255" width="60" height="30" as="geometry" />
        </mxCell>
        <mxCell id="UplhZpxLujP6LRqdYBbW-8" value="" style="rounded=0;whiteSpace=wrap;html=1;strokeColor=#E07A5F;fontColor=#393C56;fillColor=#F2CC8F;" vertex="1" parent="UplhZpxLujP6LRqdYBbW-4">
          <mxGeometry x="190" y="50" width="120" height="60" as="geometry" />
        </mxCell>
        <mxCell id="UplhZpxLujP6LRqdYBbW-9" value="&lt;b style=&quot;font-size: 20px;&quot;&gt;Services&lt;/b&gt;" style="text;html=1;align=center;verticalAlign=middle;whiteSpace=wrap;rounded=0;fontColor=#393C56;fontSize=20;" vertex="1" parent="UplhZpxLujP6LRqdYBbW-4">
          <mxGeometry x="220" y="65" width="60" height="30" as="geometry" />
        </mxCell>
        <mxCell id="UplhZpxLujP6LRqdYBbW-11" value="" style="rounded=0;whiteSpace=wrap;html=1;strokeColor=#E07A5F;fontColor=#393C56;fillColor=#F2CC8F;" vertex="1" parent="UplhZpxLujP6LRqdYBbW-4">
          <mxGeometry x="20" y="50" width="120" height="60" as="geometry" />
        </mxCell>
        <mxCell id="UplhZpxLujP6LRqdYBbW-12" value="Models" style="text;html=1;align=center;verticalAlign=middle;whiteSpace=wrap;rounded=0;fontColor=#393C56;fontSize=20;fontStyle=1" vertex="1" parent="UplhZpxLujP6LRqdYBbW-4">
          <mxGeometry x="50" y="65" width="60" height="30" as="geometry" />
        </mxCell>
        <mxCell id="UplhZpxLujP6LRqdYBbW-13" value="" style="rounded=0;whiteSpace=wrap;html=1;strokeColor=#E07A5F;fontColor=#393C56;fillColor=#F2CC8F;" vertex="1" parent="UplhZpxLujP6LRqdYBbW-4">
          <mxGeometry x="20" y="145" width="120" height="60" as="geometry" />
        </mxCell>
        <mxCell id="UplhZpxLujP6LRqdYBbW-14" value="&lt;b&gt;&lt;font style=&quot;font-size: 20px;&quot;&gt;Views&lt;/font&gt;&lt;/b&gt;" style="text;html=1;align=center;verticalAlign=middle;whiteSpace=wrap;rounded=0;fontColor=#393C56;" vertex="1" parent="UplhZpxLujP6LRqdYBbW-4">
          <mxGeometry x="50" y="160" width="60" height="30" as="geometry" />
        </mxCell>
        <mxCell id="UplhZpxLujP6LRqdYBbW-19" value="" style="rounded=0;whiteSpace=wrap;html=1;strokeColor=#E07A5F;fontColor=#393C56;fillColor=#F2CC8F;" vertex="1" parent="UplhZpxLujP6LRqdYBbW-4">
          <mxGeometry x="190" y="145" width="120" height="60" as="geometry" />
        </mxCell>
        <mxCell id="UplhZpxLujP6LRqdYBbW-20" value="Middleware" style="text;html=1;align=center;verticalAlign=middle;whiteSpace=wrap;rounded=0;fontColor=#393C56;fontStyle=1;fontSize=20;" vertex="1" parent="UplhZpxLujP6LRqdYBbW-4">
          <mxGeometry x="220" y="161" width="60" height="30" as="geometry" />
        </mxCell>
        <mxCell id="UplhZpxLujP6LRqdYBbW-21" value="" style="rounded=0;whiteSpace=wrap;html=1;strokeColor=#E07A5F;fontColor=#393C56;fillColor=#F2CC8F;" vertex="1" parent="UplhZpxLujP6LRqdYBbW-4">
          <mxGeometry x="190" y="240" width="120" height="60" as="geometry" />
        </mxCell>
        <mxCell id="UplhZpxLujP6LRqdYBbW-22" value="Validations" style="text;html=1;align=center;verticalAlign=middle;whiteSpace=wrap;rounded=0;fontColor=#393C56;fontStyle=1;fontSize=20;" vertex="1" parent="UplhZpxLujP6LRqdYBbW-4">
          <mxGeometry x="220" y="256" width="60" height="30" as="geometry" />
        </mxCell>
        <mxCell id="UplhZpxLujP6LRqdYBbW-24" value="" style="rounded=0;whiteSpace=wrap;html=1;strokeColor=#E07A5F;fontColor=#393C56;fillColor=#F2CC8F;" vertex="1" parent="UplhZpxLujP6LRqdYBbW-4">
          <mxGeometry x="100" y="350" width="120" height="60" as="geometry" />
        </mxCell>
        <mxCell id="UplhZpxLujP6LRqdYBbW-25" value="Utilities" style="text;html=1;align=center;verticalAlign=middle;whiteSpace=wrap;rounded=0;fontColor=#393C56;fontStyle=1;fontSize=20;" vertex="1" parent="UplhZpxLujP6LRqdYBbW-4">
          <mxGeometry x="130" y="370" width="60" height="30" as="geometry" />
        </mxCell>
        <mxCell id="UplhZpxLujP6LRqdYBbW-71" style="edgeStyle=orthogonalEdgeStyle;rounded=0;orthogonalLoop=1;jettySize=auto;html=1;exitX=0.5;exitY=1;exitDx=0;exitDy=0;strokeColor=#E07A5F;fontColor=#393C56;fillColor=#F2CC8F;" edge="1" parent="1" source="UplhZpxLujP6LRqdYBbW-33" target="UplhZpxLujP6LRqdYBbW-56">
          <mxGeometry relative="1" as="geometry" />
        </mxCell>
        <mxCell id="UplhZpxLujP6LRqdYBbW-33" value="Data" style="swimlane;whiteSpace=wrap;html=1;rounded=1;labelBackgroundColor=none;fillColor=#dae8fc;strokeColor=#6c8ebf;startSize=40;" vertex="1" parent="1">
          <mxGeometry x="490" y="30" width="330" height="240" as="geometry" />
        </mxCell>
        <mxCell id="UplhZpxLujP6LRqdYBbW-36" value="" style="rounded=0;whiteSpace=wrap;html=1;strokeColor=#6c8ebf;fillColor=#dae8fc;" vertex="1" parent="UplhZpxLujP6LRqdYBbW-33">
          <mxGeometry x="190" y="50" width="120" height="60" as="geometry" />
        </mxCell>
        <mxCell id="UplhZpxLujP6LRqdYBbW-37" value="&lt;b style=&quot;font-size: 20px;&quot;&gt;Migrations&lt;/b&gt;" style="text;html=1;align=center;verticalAlign=middle;whiteSpace=wrap;rounded=0;fontColor=#393C56;fontSize=20;" vertex="1" parent="UplhZpxLujP6LRqdYBbW-33">
          <mxGeometry x="220" y="65" width="60" height="30" as="geometry" />
        </mxCell>
        <mxCell id="UplhZpxLujP6LRqdYBbW-38" value="" style="rounded=0;whiteSpace=wrap;html=1;strokeColor=#6c8ebf;fillColor=#dae8fc;" vertex="1" parent="UplhZpxLujP6LRqdYBbW-33">
          <mxGeometry x="20" y="50" width="150" height="60" as="geometry" />
        </mxCell>
        <mxCell id="UplhZpxLujP6LRqdYBbW-39" value="Configuration" style="text;html=1;align=center;verticalAlign=middle;whiteSpace=wrap;rounded=0;fontColor=#393C56;fontSize=20;fontStyle=1" vertex="1" parent="UplhZpxLujP6LRqdYBbW-33">
          <mxGeometry x="65" y="65" width="60" height="30" as="geometry" />
        </mxCell>
        <mxCell id="UplhZpxLujP6LRqdYBbW-40" value="" style="rounded=0;whiteSpace=wrap;html=1;strokeColor=#6c8ebf;fillColor=#dae8fc;" vertex="1" parent="UplhZpxLujP6LRqdYBbW-33">
          <mxGeometry x="65" y="150" width="190" height="60" as="geometry" />
        </mxCell>
        <mxCell id="UplhZpxLujP6LRqdYBbW-41" value="&lt;b&gt;&lt;font style=&quot;font-size: 20px;&quot;&gt;Repositories&lt;/font&gt;&lt;/b&gt;" style="text;html=1;align=center;verticalAlign=middle;whiteSpace=wrap;rounded=0;fontColor=#393C56;" vertex="1" parent="UplhZpxLujP6LRqdYBbW-33">
          <mxGeometry x="135" y="165" width="60" height="30" as="geometry" />
        </mxCell>
        <mxCell id="UplhZpxLujP6LRqdYBbW-56" value="Domain" style="swimlane;whiteSpace=wrap;html=1;rounded=1;labelBackgroundColor=none;fillColor=#e1d5e7;strokeColor=#9673a6;startSize=40;" vertex="1" parent="1">
          <mxGeometry x="490" y="320" width="330" height="440" as="geometry" />
        </mxCell>
        <mxCell id="UplhZpxLujP6LRqdYBbW-61" value="" style="rounded=0;whiteSpace=wrap;html=1;strokeColor=#9673a6;fillColor=#e1d5e7;" vertex="1" parent="UplhZpxLujP6LRqdYBbW-56">
          <mxGeometry x="30" y="70" width="270" height="60" as="geometry" />
        </mxCell>
        <mxCell id="UplhZpxLujP6LRqdYBbW-72" value="&lt;b&gt;&lt;font style=&quot;font-size: 20px;&quot;&gt;Broker&lt;/font&gt;&lt;/b&gt;" style="text;html=1;align=center;verticalAlign=middle;whiteSpace=wrap;rounded=0;fontColor=#393C56;" vertex="1" parent="UplhZpxLujP6LRqdYBbW-56">
          <mxGeometry x="135" y="85" width="60" height="30" as="geometry" />
        </mxCell>
        <mxCell id="UplhZpxLujP6LRqdYBbW-76" value="" style="rounded=0;whiteSpace=wrap;html=1;strokeColor=#9673a6;fillColor=#e1d5e7;" vertex="1" parent="UplhZpxLujP6LRqdYBbW-56">
          <mxGeometry x="30" y="160" width="270" height="60" as="geometry" />
        </mxCell>
        <mxCell id="UplhZpxLujP6LRqdYBbW-77" value="&lt;b&gt;&lt;font style=&quot;font-size: 20px;&quot;&gt;Stock&lt;/font&gt;&lt;/b&gt;" style="text;html=1;align=center;verticalAlign=middle;whiteSpace=wrap;rounded=0;fontColor=#393C56;" vertex="1" parent="UplhZpxLujP6LRqdYBbW-56">
          <mxGeometry x="135" y="175" width="60" height="30" as="geometry" />
        </mxCell>
        <mxCell id="UplhZpxLujP6LRqdYBbW-82" style="edgeStyle=orthogonalEdgeStyle;rounded=0;orthogonalLoop=1;jettySize=auto;html=1;exitX=0;exitY=0.5;exitDx=0;exitDy=0;entryX=0;entryY=0.5;entryDx=0;entryDy=0;strokeColor=#9673a6;fontColor=#393C56;fillColor=#e1d5e7;" edge="1" parent="UplhZpxLujP6LRqdYBbW-56" source="UplhZpxLujP6LRqdYBbW-78" target="UplhZpxLujP6LRqdYBbW-76">
          <mxGeometry relative="1" as="geometry" />
        </mxCell>
        <mxCell id="UplhZpxLujP6LRqdYBbW-84" style="edgeStyle=orthogonalEdgeStyle;rounded=0;orthogonalLoop=1;jettySize=auto;html=1;exitX=1;exitY=0.5;exitDx=0;exitDy=0;entryX=1;entryY=0.5;entryDx=0;entryDy=0;strokeColor=#9673a6;fontColor=#393C56;fillColor=#e1d5e7;" edge="1" parent="UplhZpxLujP6LRqdYBbW-56" source="UplhZpxLujP6LRqdYBbW-78" target="UplhZpxLujP6LRqdYBbW-61">
          <mxGeometry relative="1" as="geometry" />
        </mxCell>
        <mxCell id="UplhZpxLujP6LRqdYBbW-78" value="" style="rounded=0;whiteSpace=wrap;html=1;strokeColor=#9673a6;fillColor=#e1d5e7;" vertex="1" parent="UplhZpxLujP6LRqdYBbW-56">
          <mxGeometry x="30" y="250" width="270" height="60" as="geometry" />
        </mxCell>
        <mxCell id="UplhZpxLujP6LRqdYBbW-79" value="&lt;b&gt;&lt;font style=&quot;font-size: 20px;&quot;&gt;Trade&lt;/font&gt;&lt;/b&gt;" style="text;html=1;align=center;verticalAlign=middle;whiteSpace=wrap;rounded=0;fontColor=#393C56;" vertex="1" parent="UplhZpxLujP6LRqdYBbW-56">
          <mxGeometry x="135" y="265" width="60" height="30" as="geometry" />
        </mxCell>
        <mxCell id="UplhZpxLujP6LRqdYBbW-80" value="" style="rounded=0;whiteSpace=wrap;html=1;strokeColor=#9673a6;fillColor=#e1d5e7;" vertex="1" parent="UplhZpxLujP6LRqdYBbW-56">
          <mxGeometry x="30" y="340" width="270" height="60" as="geometry" />
        </mxCell>
        <mxCell id="UplhZpxLujP6LRqdYBbW-81" value="&lt;b&gt;&lt;font style=&quot;font-size: 20px;&quot;&gt;CustomExceptions&lt;/font&gt;&lt;/b&gt;" style="text;html=1;align=center;verticalAlign=middle;whiteSpace=wrap;rounded=0;fontColor=#393C56;" vertex="1" parent="UplhZpxLujP6LRqdYBbW-56">
          <mxGeometry x="135" y="355" width="60" height="30" as="geometry" />
        </mxCell>
      </root>
    </mxGraphModel>
  </diagram>
</mxfile>
